<?xml version="1.0" encoding="utf-8"?>
<!-- Generator: Adobe Illustrator 16.0.4, SVG Export Plug-In . SVG Version: 6.00 Build 0)  -->
<!DOCTYPE svg PUBLIC "-//W3C//DTD SVG 1.1//EN" "http://www.w3.org/Graphics/SVG/1.1/DTD/svg11.dtd">
<svg version="1.1" id="Capa_1" xmlns="http://www.w3.org/2000/svg" xmlns:xlink="http://www.w3.org/1999/xlink" x="0px" y="0px"
	 width="48px" height="79.5px" viewBox="0 0 48 79.5" enable-background="new 0 0 48 79.5" xml:space="preserve">
<path d="M47.771,38.602c-0.461-1.119-1.56-1.851-2.771-1.851h-3v-6c0-4.971-4.029-9-9-9h-6v-3.003c0-1.212-0.732-2.31-1.852-2.772
	c-1.123-0.462-2.413-0.204-3.271,0.651l-6,6C15.294,23.211,15,23.979,15,24.748s0.294,1.536,0.879,2.121l6,6
	c0.858,0.858,2.148,1.113,3.27,0.651C26.268,33.058,27,31.959,27,30.748V27.75h6c1.659,0,3,1.344,3,3v6h-3
	c-1.212,0-2.311,0.732-2.771,1.851c-0.463,1.122-0.205,2.413,0.65,3.271l6,6c0.585,0.585,1.354,0.879,2.121,0.879
	s1.536-0.294,2.121-0.879l6-6C47.979,41.015,48.234,39.724,47.771,38.602z M24,45.751c1.659,0,3,1.341,3,3v12c0,1.659-1.341,3-3,3
	H12c-1.656,0-3-1.341-3-3v-3h12v-12H24z M18,51.751v-12c0-1.656-1.344-3-3-3H3c-1.656,0-3,1.344-3,3v12c0,1.659,1.344,3,3,3h12
	C16.656,54.751,18,53.41,18,51.751z M12,48.751H6v-6h6V48.751z"/>
</svg>
